<?xml version="1.0" encoding="utf-8"?>
<!-- Generator: Adobe Illustrator 19.1.0, SVG Export Plug-In . SVG Version: 6.00 Build 0)  -->
<svg version="1.1" id="Layer_1" xmlns="http://www.w3.org/2000/svg" xmlns:xlink="http://www.w3.org/1999/xlink" x="0px" y="0px"
	 viewBox="0 0 357.2 357.2" style="enable-background:new 0 0 357.2 357.2;" width="368px" height="368px" xml:space="preserve">
<style type="text/css">
	.st0{fill:#FFFFFF;}
	.st1{fill:#FF4081;}
	.st2{fill:#F6C242;}
	.st3{fill:#EDEDEF;}
	.st4{fill:#5A5EF5;}
	.st5{fill:#83E8CF;}
</style>
<g>
	<circle class="st0" cx="178.6" cy="178.6" r="178.6"/>
</g>
<g>
	<path class="st0" d="M220,277.1H66.2c-11.4,0-20.6-9.2-20.6-20.6v-87.2c0-11.4,9.2-20.6,20.6-20.6H220c11.4,0,20.6,9.2,20.6,20.6
		v87.2C240.6,267.9,231.4,277.1,220,277.1z"/>
	<path d="M220,277.6H66.2c-11.6,0-21.1-9.5-21.1-21.1v-87.2c0-11.6,9.5-21.1,21.1-21.1H220c11.6,0,21.1,9.5,21.1,21.1v87.2
		C241.1,268.1,231.7,277.6,220,277.6z M66.2,149.2c-11.1,0-20.1,9-20.1,20.1v87.2c0,11.1,9,20.1,20.1,20.1H220
		c11.1,0,20.1-9,20.1-20.1v-87.2c0-11.1-9-20.1-20.1-20.1H66.2z"/>
</g>
<g>
	<polygon class="st1" points="115.9,244.8 115.9,181 170.3,212.9 	"/>
</g>
<g>
	<path d="M178.6,304.3h-8c-0.3,0-0.5-0.2-0.5-0.5s0.2-0.5,0.5-0.5h8c0.3,0,0.5,0.2,0.5,0.5S178.9,304.3,178.6,304.3z M162.6,304.3
		h-8c-0.3,0-0.5-0.2-0.5-0.5s0.2-0.5,0.5-0.5h8c0.3,0,0.5,0.2,0.5,0.5S162.9,304.3,162.6,304.3z M146.6,304.3h-8
		c-0.3,0-0.5-0.2-0.5-0.5s0.2-0.5,0.5-0.5h8c0.3,0,0.5,0.2,0.5,0.5S146.9,304.3,146.6,304.3z M130.6,304.3h-8
		c-0.3,0-0.5-0.2-0.5-0.5s0.2-0.5,0.5-0.5h8c0.3,0,0.5,0.2,0.5,0.5S130.9,304.3,130.6,304.3z M114.6,304.3h-8
		c-0.3,0-0.5-0.2-0.5-0.5s0.2-0.5,0.5-0.5h8c0.3,0,0.5,0.2,0.5,0.5S114.9,304.3,114.6,304.3z M98.6,304.3H95c-0.3,0-0.5-0.2-0.5-0.5
		s0.2-0.5,0.5-0.5h3.5c0.3,0,0.5,0.2,0.5,0.5S98.9,304.3,98.6,304.3z"/>
</g>
<g>
	<g>
		<polygon class="st2" points="274.8,286.9 233.7,328 192.6,286.9 215.8,286.9 215.8,209.3 251.6,209.3 251.6,286.9 		"/>
		<path d="M233.7,328.7l-42.3-42.3h23.9v-77.6h36.9v77.6H276L233.7,328.7z M193.8,287.4l39.9,39.9l39.9-39.9h-22.5v-77.6h-34.9v77.6
			H193.8z"/>
	</g>
</g>
<g>
	<g>
		<g>
			<circle class="st3" cx="159" cy="102" r="67.2"/>
			<path class="st3" d="M159,169.7c-37.3,0-67.7-30.4-67.7-67.7c0-37.3,30.4-67.7,67.7-67.7s67.7,30.4,67.7,67.7
				C226.7,139.3,196.3,169.7,159,169.7z M159,35.3c-36.8,0-66.7,29.9-66.7,66.7s29.9,66.7,66.7,66.7s66.7-29.9,66.7-66.7
				S195.7,35.3,159,35.3z"/>
		</g>
	</g>
	<g>
		<g>
			<circle class="st4" cx="159" cy="75.4" r="25.1"/>
		</g>
	</g>
	<g>
		<g>
			<path class="st4" d="M159,106c-24.9,0-45.4,19-47.8,43.3c12.2,12.3,29.1,20,47.8,20c18.7,0,35.6-7.6,47.8-20
				C204.4,124.9,183.9,106,159,106z"/>
		</g>
	</g>
</g>
<g>
	<g>
		<polygon class="st5" points="247.8,170.1 288.9,128.9 330.1,170.1 306.9,170.1 306.9,247.7 271,247.7 271,170.1 		"/>
		<path d="M307.4,248.2h-36.9v-77.6h-23.9l42.3-42.3l42.3,42.3h-23.9V248.2z M271.5,247.2h34.9v-77.6h22.5l-39.9-39.9L249,169.6
			h22.5V247.2z"/>
	</g>
</g>
</svg>
