<?xml version="1.0" encoding="utf-8"?>
<!-- Generator: Adobe Illustrator 19.1.0, SVG Export Plug-In . SVG Version: 6.00 Build 0)  -->
<svg version="1.1" id="Layer_1" xmlns="http://www.w3.org/2000/svg" xmlns:xlink="http://www.w3.org/1999/xlink" x="0px" y="0px"
	 viewBox="0 0 357.2 357.2" style="enable-background:new 0 0 357.2 357.2;" width="368px" height="368px" xml:space="preserve">
<style type="text/css">
	.st0{fill:#FFFFFF;}
	.st1{fill:#EDEDEF;}
	.st2{fill:#5A5EF5;}
	.st3{fill:#FF4081;}
	.st4{fill:#83E8CF;}
	.st5{fill:#F6C242;}
</style>
<g>
	<circle class="st0" cx="178.6" cy="178.6" r="178.6"/>
</g>
<g>
	<path d="M108,210.1c-0.1,0-0.3-0.1-0.4-0.2l-37.5-41.6l-37.5,41.6c-0.2,0.2-0.5,0.2-0.7,0c-0.2-0.2-0.2-0.5,0-0.7l38.2-42.5
		l38.2,42.5c0.2,0.2,0.2,0.5,0,0.7C108.2,210,108.1,210.1,108,210.1z"/>
</g>
<g>
	<rect x="70.1" y="100.6" class="st1" width="226.6" height="144.4"/>
	<path class="st1" d="M297.3,245.5H69.6V100.1h227.6V245.5z M70.6,244.5h225.6V101.1H70.6V244.5z"/>
</g>
<g>
	<g>
		<g>
			<path class="st0" d="M241.9,77.3c-13.4,26.6-43.9,45.1-79.4,45.1c-35.5,0-66-18.6-79.4-45.1c13.4-26.6,43.9-45.1,79.4-45.1
				C198,32.2,228.5,50.8,241.9,77.3z"/>
			<path d="M162.5,122.9c-34.6,0-66-17.8-79.8-45.4l-0.1-0.2l0.1-0.2c13.9-27.6,45.2-45.4,79.8-45.4c34.6,0,66,17.8,79.8,45.4
				l0.1,0.2l-0.1,0.2C228.5,105.1,197.1,122.9,162.5,122.9z M83.7,77.3c13.8,27.1,44.7,44.6,78.8,44.6c34.1,0,65.1-17.5,78.8-44.6
				c-13.8-27.1-44.7-44.6-78.8-44.6C128.3,32.7,97.4,50.2,83.7,77.3z"/>
		</g>
	</g>
	<g>
		<g>
			<circle class="st2" cx="162.5" cy="77.3" r="35.3"/>
		</g>
		<g>
			<path d="M162.5,90.5c-7.2,0-13.1-5.9-13.1-13.1s5.9-13.1,13.1-13.1s13.1,5.9,13.1,13.1S169.7,90.5,162.5,90.5z M162.5,65.2
				c-6.7,0-12.1,5.4-12.1,12.1s5.4,12.1,12.1,12.1s12.1-5.4,12.1-12.1S169.2,65.2,162.5,65.2z"/>
		</g>
	</g>
</g>
<g>
	<polygon class="st3" points="159.1,141.5 211.7,172.8 159.1,204.1 	"/>
</g>
<g>
	<g>
		<circle class="st4" cx="284.2" cy="220.9" r="44.3"/>
		<path d="M284.2,265.7c-24.7,0-44.8-20.1-44.8-44.8s20.1-44.8,44.8-44.8s44.8,20.1,44.8,44.8S308.9,265.7,284.2,265.7z
			 M284.2,177.1c-24.1,0-43.8,19.6-43.8,43.8s19.6,43.8,43.8,43.8s43.8-19.6,43.8-43.8S308.3,177.1,284.2,177.1z"/>
	</g>
	<g>
		<path d="M284.2,265.7c-24.7,0-44.8-20.1-44.8-44.8s20.1-44.8,44.8-44.8s44.8,20.1,44.8,44.8S308.9,265.7,284.2,265.7z
			 M284.2,177.1c-24.1,0-43.8,19.6-43.8,43.8s19.6,43.8,43.8,43.8s43.8-19.6,43.8-43.8S308.3,177.1,284.2,177.1z"/>
	</g>
</g>
<g>
	<path class="st0" d="M255.7,242.1c6-14.2,20.1-13.7,36.7-13.7v13.7l23.3-23.3l-23.3-23.3v13.3C269.1,208.7,255.7,216.1,255.7,242.1
		z"/>
</g>
<g>
	<g>
		<polygon class="st0" points="61.5,218.4 61.5,294.4 81.7,294.4 96.5,310.1 111.2,294.4 211.4,294.4 211.4,218.4 		"/>
		<path d="M96.5,310.8l-15-16H61v-76.9h151v76.9H111.4L96.5,310.8z M62,293.9h20l14.5,15.5l14.5-15.5h100v-74.9H62V293.9z"/>
	</g>
</g>
<g>
	<path d="M227.6,325.4c-0.3,0-0.5-0.2-0.5-0.5v-8c0-0.3,0.2-0.5,0.5-0.5s0.5,0.2,0.5,0.5v8C228.1,325.2,227.9,325.4,227.6,325.4z
		 M227.6,309.4c-0.3,0-0.5-0.2-0.5-0.5v-8c0-0.3,0.2-0.5,0.5-0.5s0.5,0.2,0.5,0.5v8C228.1,309.2,227.9,309.4,227.6,309.4z
		 M227.6,293.4c-0.3,0-0.5-0.2-0.5-0.5v-8c0-0.3,0.2-0.5,0.5-0.5s0.5,0.2,0.5,0.5v8C228.1,293.2,227.9,293.4,227.6,293.4z"/>
</g>
<g>
	<g>
		<path d="M32.3,166.3c-0.1,0-0.2,0-0.3-0.1c-0.2-0.2-0.2-0.5,0-0.7l2.7-3c0.2-0.2,0.5-0.2,0.7,0s0.2,0.5,0,0.7l-2.7,3
			C32.5,166.2,32.4,166.3,32.3,166.3z"/>
	</g>
	<g>
		<path d="M39.6,158.2c-0.1,0-0.2,0-0.3-0.1c-0.2-0.2-0.2-0.5,0-0.7l4.6-5.2c0.2-0.2,0.5-0.2,0.7,0c0.2,0.2,0.2,0.5,0,0.7L40,158
			C39.9,158.1,39.7,158.2,39.6,158.2z M48.9,147.9c-0.1,0-0.2,0-0.3-0.1c-0.2-0.2-0.2-0.5,0-0.7l4.6-5.2c0.2-0.2,0.5-0.2,0.7,0
			c0.2,0.2,0.2,0.5,0,0.7l-4.6,5.2C49.2,147.8,49,147.9,48.9,147.9z M58.2,137.5c-0.1,0-0.2,0-0.3-0.1c-0.2-0.2-0.2-0.5,0-0.7
			l4.6-5.2c0.2-0.2,0.5-0.2,0.7,0s0.2,0.5,0,0.7l-4.6,5.2C58.4,137.5,58.3,137.5,58.2,137.5z"/>
	</g>
	<g>
		<path d="M72.8,127.2c-0.1,0-0.3-0.1-0.4-0.2l-2.3-2.6l-2.3,2.6c-0.2,0.2-0.5,0.2-0.7,0c-0.2-0.2-0.2-0.5,0-0.7l3-3.4l3,3.4
			c0.2,0.2,0.2,0.5,0,0.7C73.1,127.2,72.9,127.2,72.8,127.2z"/>
	</g>
	<g>
		<path d="M100.7,158.2c-0.1,0-0.3-0.1-0.4-0.2l-4.6-5.2c-0.2-0.2-0.2-0.5,0-0.7s0.5-0.2,0.7,0l4.6,5.2c0.2,0.2,0.2,0.5,0,0.7
			C100.9,158.1,100.8,158.2,100.7,158.2z M91.4,147.9c-0.1,0-0.3-0.1-0.4-0.2l-4.6-5.2c-0.2-0.2-0.2-0.5,0-0.7
			c0.2-0.2,0.5-0.2,0.7,0l4.6,5.2c0.2,0.2,0.2,0.5,0,0.7C91.6,147.8,91.5,147.9,91.4,147.9z M82.1,137.5c-0.1,0-0.3-0.1-0.4-0.2
			l-4.6-5.2c-0.2-0.2-0.2-0.5,0-0.7c0.2-0.2,0.5-0.2,0.7,0l4.6,5.2c0.2,0.2,0.2,0.5,0,0.7C82.3,137.5,82.2,137.5,82.1,137.5z"/>
	</g>
	<g>
		<path d="M108,166.3c-0.1,0-0.3-0.1-0.4-0.2l-2.7-3c-0.2-0.2-0.2-0.5,0-0.7c0.2-0.2,0.5-0.2,0.7,0l2.7,3c0.2,0.2,0.2,0.5,0,0.7
			C108.2,166.3,108.1,166.3,108,166.3z"/>
	</g>
</g>
<g>
	<rect x="83.8" y="243.6" class="st5" width="103.6" height="5.8"/>
</g>
<g>
	<rect x="83.8" y="265.9" class="st5" width="103.6" height="5.8"/>
</g>
</svg>
