<?xml version="1.0" encoding="utf-8"?>
<!-- Generator: Adobe Illustrator 19.1.0, SVG Export Plug-In . SVG Version: 6.00 Build 0)  -->
<svg version="1.1" id="Layer_1" xmlns="http://www.w3.org/2000/svg" xmlns:xlink="http://www.w3.org/1999/xlink" x="0px" y="0px"
	 viewBox="0 0 357.2 357.2" style="enable-background:new 0 0 357.2 357.2;" width="368px" height="368px" xml:space="preserve">
<style type="text/css">
	.st0{fill:#FFFFFF;}
	.st1{fill:#EDEDEF;}
	.st2{fill:#F6C242;}
	.st3{fill:#83E8CF;}
	.st4{fill:#5A5EF5;}
	.st5{fill:#FF4081;}
</style>
<g>
	<circle class="st0" cx="178.6" cy="178.6" r="178.6"/>
</g>
<g>
	<g>
		<circle class="st1" cx="180.7" cy="180" r="104.6"/>
	</g>
	<g>
		<g>
			<path class="st2" d="M118.4,92.3c-27.7,19.3-45.9,51.5-45.9,87.8c0,49.2,33.2,90.7,78.5,103.2l29.4-103.6L118.4,92.3z"/>
		</g>
	</g>
	<g>
		<path class="st3" d="M180.7,67.9c-62.1,0-112.5,50.4-112.5,112.5c0,43.6,24.8,81.4,61.1,100.1l51.4-100.1V67.9z"/>
	</g>
	<g>
		<path d="M110.4,314.6c-0.1,0-0.2,0-0.2-0.1c-0.2-0.1-0.3-0.4-0.2-0.7l43.8-82.2c0.1-0.2,0.4-0.3,0.7-0.2c0.2,0.1,0.3,0.4,0.2,0.7
			l-43.8,82.2C110.8,314.5,110.6,314.6,110.4,314.6z"/>
	</g>
	<g>
		<path d="M273.9,301.6c-0.1,0-0.3-0.1-0.4-0.2l-4.9-6.3c-0.2-0.2-0.1-0.5,0.1-0.7c0.2-0.2,0.5-0.1,0.7,0.1l4.9,6.3
			c0.2,0.2,0.1,0.5-0.1,0.7C274.1,301.6,274,301.6,273.9,301.6z M264.2,288.9c-0.1,0-0.3-0.1-0.4-0.2l-4.9-6.3
			c-0.2-0.2-0.1-0.5,0.1-0.7c0.2-0.2,0.5-0.1,0.7,0.1l4.9,6.3c0.2,0.2,0.1,0.5-0.1,0.7C264.4,288.9,264.3,288.9,264.2,288.9z
			 M254.4,276.2c-0.1,0-0.3-0.1-0.4-0.2l-4.9-6.3c-0.2-0.2-0.1-0.5,0.1-0.7c0.2-0.2,0.5-0.1,0.7,0.1l4.9,6.3
			c0.2,0.2,0.1,0.5-0.1,0.7C254.6,276.2,254.5,276.2,254.4,276.2z M244.7,263.6c-0.1,0-0.3-0.1-0.4-0.2l-4.9-6.3
			c-0.2-0.2-0.1-0.5,0.1-0.7c0.2-0.2,0.5-0.1,0.7,0.1l4.9,6.3c0.2,0.2,0.1,0.5-0.1,0.7C244.9,263.5,244.8,263.6,244.7,263.6z
			 M234.9,250.9c-0.1,0-0.3-0.1-0.4-0.2l-4.9-6.3c-0.2-0.2-0.1-0.5,0.1-0.7c0.2-0.2,0.5-0.1,0.7,0.1l4.9,6.3
			c0.2,0.2,0.1,0.5-0.1,0.7C235.1,250.8,235,250.9,234.9,250.9z M225.2,238.2c-0.1,0-0.3-0.1-0.4-0.2l-4.9-6.3
			c-0.2-0.2-0.1-0.5,0.1-0.7c0.2-0.2,0.5-0.1,0.7,0.1l4.9,6.3c0.2,0.2,0.1,0.5-0.1,0.7C225.4,238.1,225.3,238.2,225.2,238.2z"/>
	</g>
	<g>
		<g>
			<path class="st4" d="M180.7,56.3v123.2l-97.8,74.9c-15.9-20.8-25.4-46.7-25.4-74.9C57.5,111.4,112.6,56.3,180.7,56.3z"/>
		</g>
	</g>
	<g>
		<circle class="st0" cx="180.7" cy="180" r="58.2"/>
	</g>
</g>
<g>
	<path d="M178.6,317.3c-76.1,0-138-61.9-138-138s61.9-138,138-138c0.3,0,0.5,0.2,0.5,0.5s-0.2,0.5-0.5,0.5c-75.6,0-137,61.5-137,137
		c0,75.6,61.5,137,137,137c75.6,0,137-61.5,137-137c0-48.5-26.1-93.9-68-118.4c-0.2-0.1-0.3-0.4-0.2-0.7c0.1-0.2,0.4-0.3,0.7-0.2
		c20.5,12,37.6,29.1,49.6,49.5c12.4,21.1,18.9,45.2,18.9,69.7C316.6,255.4,254.7,317.3,178.6,317.3z"/>
</g>
<g>
	<g>
		<g>
			<path d="M239.7,83.1c-0.2,0-0.4-0.1-0.5-0.4l-1.1-3.8c-0.1-0.3,0.1-0.5,0.3-0.6c0.3-0.1,0.5,0.1,0.6,0.3l1.1,3.8
				c0.1,0.3-0.1,0.5-0.3,0.6C239.8,83.1,239.7,83.1,239.7,83.1z"/>
		</g>
		<g>
			<path d="M235.8,69.8c-0.2,0-0.4-0.1-0.5-0.4l-2.7-9.4c-0.1-0.3,0.1-0.5,0.3-0.6c0.3-0.1,0.5,0.1,0.6,0.3l2.7,9.4
				c0.1,0.3-0.1,0.5-0.3,0.6C235.9,69.8,235.9,69.8,235.8,69.8z"/>
		</g>
		<g>
			<path d="M230.4,51c-0.2,0-0.4-0.1-0.5-0.4l-1.3-4.5l4.7,0c0.3,0,0.5,0.2,0.5,0.5s-0.2,0.5-0.5,0.5c0,0,0,0,0,0l-3.3,0l0.9,3.2
				c0.1,0.3-0.1,0.5-0.3,0.6C230.4,51,230.4,51,230.4,51z"/>
		</g>
		<g>
			<path d="M252.9,47.2C252.9,47.2,252.9,47.2,252.9,47.2l-9.8,0c-0.3,0-0.5-0.2-0.5-0.5s0.2-0.5,0.5-0.5c0,0,0,0,0,0l9.8,0
				c0.3,0,0.5,0.2,0.5,0.5S253.1,47.2,252.9,47.2z"/>
		</g>
		<g>
			<path d="M266.7,47.3C266.7,47.3,266.7,47.3,266.7,47.3l-4,0c-0.3,0-0.5-0.2-0.5-0.5s0.2-0.5,0.5-0.5c0,0,0,0,0,0l4,0
				c0.3,0,0.5,0.2,0.5,0.5S266.9,47.3,266.7,47.3z"/>
		</g>
	</g>
</g>
<g>
	<polygon class="st5" points="162.3,206 162.3,152.6 207.9,179.3 	"/>
</g>
</svg>
